<svg width="248.16" height="57.6" viewBox="0 0 250.16 57.6" xmlns="http://www.w3.org/2000/svg"><g id="svgGroup" stroke-linecap="round" fill-rule="evenodd" font-size="9pt" stroke="#32bea6" stroke-width="0.25mm" fill="none" style="stroke:#32bea6;stroke-width:0.5mm;fill:none"><path d="M 0 40.86 L 2.88 36.06 Q 5.04 37.86 7.74 39 A 14.009 14.009 0 0 0 10.962 39.906 A 19.271 19.271 0 0 0 14.04 40.14 Q 18.36 40.14 20.88 38.34 A 6.168 6.168 0 0 0 22.558 36.597 Q 23.347 35.333 23.397 33.699 A 7.27 7.27 0 0 0 23.4 33.48 Q 23.4 32.22 23.04 31.14 A 4.329 4.329 0 0 0 22.463 30.018 Q 22.122 29.534 21.63 29.07 Q 20.867 28.351 19.661 27.631 A 20.186 20.186 0 0 0 18.69 27.09 Q 17.405 26.417 15.608 25.675 A 68.508 68.508 0 0 0 13.8 24.96 Q 10.56 23.7 8.31 22.47 Q 6.238 21.337 4.904 20.001 A 10.44 10.44 0 0 1 4.68 19.77 A 9.176 9.176 0 0 1 3.112 17.528 A 8.362 8.362 0 0 1 2.7 16.53 A 11.003 11.003 0 0 1 2.223 14.442 A 14.92 14.92 0 0 1 2.1 12.48 Q 2.1 10.26 3.03 8.28 A 9.566 9.566 0 0 1 5.455 5.11 A 11.21 11.21 0 0 1 5.79 4.83 A 12.254 12.254 0 0 1 8.259 3.306 A 16.139 16.139 0 0 1 10.29 2.52 A 17.621 17.621 0 0 1 13.339 1.865 A 23.912 23.912 0 0 1 16.38 1.68 A 31.689 31.689 0 0 1 19.801 1.856 A 23.285 23.285 0 0 1 23.04 2.43 Q 25.98 3.18 28.86 4.56 L 26.76 9.42 A 18.897 18.897 0 0 0 24.285 8.209 A 25.012 25.012 0 0 0 21.99 7.41 Q 19.26 6.6 16.26 6.6 Q 13.485 6.6 11.535 7.351 A 7.631 7.631 0 0 0 10.02 8.13 A 5.698 5.698 0 0 0 8.687 9.343 A 4.476 4.476 0 0 0 7.74 12.18 A 7.437 7.437 0 0 0 7.817 13.279 A 5.515 5.515 0 0 0 8.07 14.31 A 3.527 3.527 0 0 0 8.524 15.169 Q 8.776 15.524 9.131 15.871 A 6.731 6.731 0 0 0 9.39 16.11 Q 10.38 16.98 12.15 17.88 A 28.158 28.158 0 0 0 13.505 18.52 Q 14.218 18.836 15.057 19.171 A 69.277 69.277 0 0 0 16.86 19.86 A 53.441 53.441 0 0 1 19.509 20.942 Q 20.807 21.516 21.908 22.101 A 28.163 28.163 0 0 1 22.74 22.56 A 20.362 20.362 0 0 1 24.594 23.756 Q 25.495 24.414 26.2 25.108 A 11.417 11.417 0 0 1 26.58 25.5 A 10.316 10.316 0 0 1 28.034 27.49 A 8.842 8.842 0 0 1 28.65 28.86 Q 29.28 30.66 29.28 32.82 A 12.928 12.928 0 0 1 28.977 35.676 A 10.384 10.384 0 0 1 28.14 38.04 Q 27 40.32 24.99 41.91 A 12.967 12.967 0 0 1 21.883 43.711 A 16.19 16.19 0 0 1 20.16 44.31 A 20.899 20.899 0 0 1 16.056 45.041 A 25.162 25.162 0 0 1 14.04 45.12 Q 9.66 45.12 6.06 43.95 A 22.923 22.923 0 0 1 2.84 42.641 A 17.06 17.06 0 0 1 0 40.86 Z M 42.48 0 L 42.48 18.18 Q 44.16 15.72 46.71 14.1 A 10.275 10.275 0 0 1 50.634 12.646 A 13.619 13.619 0 0 1 52.8 12.48 A 13.935 13.935 0 0 1 55.839 12.791 Q 58.896 13.474 60.69 15.66 Q 63.165 18.675 63.293 23.525 A 20.259 20.259 0 0 1 63.3 24.06 L 63.3 44.4 L 57.9 44.4 L 57.9 24.66 Q 57.9 21.24 56.37 19.23 A 4.971 4.971 0 0 0 52.91 17.279 A 7.343 7.343 0 0 0 51.96 17.22 Q 50.58 17.22 49.23 17.73 Q 47.88 18.24 46.68 19.14 A 15.691 15.691 0 0 0 44.706 20.908 A 17.654 17.654 0 0 0 44.4 21.24 Q 43.32 22.44 42.48 23.76 L 42.48 44.4 L 37.08 44.4 L 37.08 0 L 42.48 0 Z M 224.58 41.88 L 226.86 37.38 Q 228.42 38.76 230.79 39.6 A 14.874 14.874 0 0 0 235.273 40.43 A 17.02 17.02 0 0 0 235.86 40.44 A 16.268 16.268 0 0 0 237.71 40.342 Q 239.728 40.11 240.93 39.33 Q 242.64 38.22 242.64 36.48 A 4.327 4.327 0 0 0 242.409 35.059 A 4.078 4.078 0 0 0 242.31 34.8 A 3.226 3.226 0 0 0 241.882 34.082 Q 241.65 33.782 241.332 33.492 A 6.111 6.111 0 0 0 241.11 33.3 A 7.554 7.554 0 0 0 240.369 32.764 Q 239.958 32.501 239.461 32.242 A 16.453 16.453 0 0 0 238.74 31.89 Q 237.24 31.2 234.84 30.36 A 28.264 28.264 0 0 1 232.288 29.367 Q 231.026 28.799 230.026 28.166 A 11.325 11.325 0 0 1 228.24 26.79 A 6.808 6.808 0 0 1 226.302 23.242 A 10.165 10.165 0 0 1 226.08 21.06 Q 226.08 19.26 226.89 17.7 A 7.945 7.945 0 0 1 228.682 15.422 A 9.475 9.475 0 0 1 229.23 14.97 A 10.398 10.398 0 0 1 231.28 13.76 A 13.599 13.599 0 0 1 232.95 13.14 Q 235.14 12.48 237.96 12.48 A 25.279 25.279 0 0 1 240.494 12.601 Q 242.031 12.756 243.33 13.11 A 23.125 23.125 0 0 1 245.914 13.974 A 18.908 18.908 0 0 1 247.5 14.7 L 246 19.14 A 14.717 14.717 0 0 0 243.799 18.081 A 18.115 18.115 0 0 0 242.31 17.58 A 15.014 15.014 0 0 0 239.62 17.072 A 19.102 19.102 0 0 0 237.72 16.98 Q 234.6 16.98 232.98 18.24 Q 231.36 19.5 231.36 21 A 3.341 3.341 0 0 0 231.476 21.893 A 2.958 2.958 0 0 0 231.63 22.32 Q 231.855 22.819 232.39 23.276 A 4.651 4.651 0 0 0 232.62 23.46 Q 233.157 23.863 233.962 24.266 A 15.451 15.451 0 0 0 234.54 24.54 A 22.866 22.866 0 0 0 235.524 24.953 Q 236.415 25.305 237.54 25.68 A 51.256 51.256 0 0 1 239.618 26.449 Q 241.245 27.094 242.52 27.75 A 16.327 16.327 0 0 1 244.149 28.704 Q 244.929 29.228 245.545 29.796 A 9.408 9.408 0 0 1 245.82 30.06 A 8.302 8.302 0 0 1 246.983 31.501 A 6.837 6.837 0 0 1 247.62 32.79 Q 248.16 34.26 248.16 36.06 A 8.419 8.419 0 0 1 247.843 38.406 A 7.341 7.341 0 0 1 247.26 39.84 Q 246.36 41.52 244.74 42.69 A 10.772 10.772 0 0 1 242.636 43.862 A 14.264 14.264 0 0 1 240.81 44.49 Q 238.5 45.12 235.68 45.12 A 24.662 24.662 0 0 1 232.376 44.909 A 18.309 18.309 0 0 1 229.26 44.22 Q 226.44 43.32 224.58 41.88 Z M 104.88 17.4 L 106.02 13.2 A 10.515 10.515 0 0 1 108.556 13.482 Q 110.269 13.909 111.373 14.978 A 6.09 6.09 0 0 1 112.92 17.58 Q 113.34 16.92 114.21 16.02 A 9.831 9.831 0 0 1 115.312 15.045 A 12.704 12.704 0 0 1 116.34 14.34 A 12.61 12.61 0 0 1 118.056 13.459 A 15.663 15.663 0 0 1 119.22 13.02 A 10.43 10.43 0 0 1 121.386 12.556 A 13.146 13.146 0 0 1 122.82 12.48 Q 125.52 12.48 128.01 13.56 Q 130.5 14.64 132.39 16.68 Q 134.28 18.72 135.42 21.72 A 17.24 17.24 0 0 1 136.386 25.666 A 22.297 22.297 0 0 1 136.56 28.5 A 21.671 21.671 0 0 1 136.209 32.476 A 17.746 17.746 0 0 1 135.45 35.28 A 17.921 17.921 0 0 1 133.857 38.607 A 15.067 15.067 0 0 1 132.45 40.53 A 13.675 13.675 0 0 1 128.566 43.681 A 13.102 13.102 0 0 1 128.1 43.92 Q 125.64 45.12 122.94 45.12 A 12.494 12.494 0 0 1 119.158 44.559 A 11.42 11.42 0 0 1 117.75 44.01 A 18.207 18.207 0 0 1 115.706 42.897 A 13.238 13.238 0 0 1 113.82 41.46 L 113.82 57.6 L 108.42 57.6 L 108.42 21.18 Q 108.42 19.975 108.075 19.178 A 2.523 2.523 0 0 0 107.43 18.27 A 3.431 3.431 0 0 0 105.756 17.477 A 4.794 4.794 0 0 0 104.88 17.4 Z M 140.46 17.4 L 141.6 13.2 A 10.515 10.515 0 0 1 144.136 13.482 Q 145.849 13.909 146.953 14.978 A 6.09 6.09 0 0 1 148.5 17.58 Q 148.92 16.92 149.79 16.02 A 9.831 9.831 0 0 1 150.892 15.045 A 12.704 12.704 0 0 1 151.92 14.34 A 12.61 12.61 0 0 1 153.636 13.459 A 15.663 15.663 0 0 1 154.8 13.02 A 10.43 10.43 0 0 1 156.966 12.556 A 13.146 13.146 0 0 1 158.4 12.48 Q 161.1 12.48 163.59 13.56 Q 166.08 14.64 167.97 16.68 Q 169.86 18.72 171 21.72 A 17.24 17.24 0 0 1 171.966 25.666 A 22.297 22.297 0 0 1 172.14 28.5 A 21.671 21.671 0 0 1 171.789 32.476 A 17.746 17.746 0 0 1 171.03 35.28 A 17.921 17.921 0 0 1 169.437 38.607 A 15.067 15.067 0 0 1 168.03 40.53 A 13.675 13.675 0 0 1 164.146 43.681 A 13.102 13.102 0 0 1 163.68 43.92 Q 161.22 45.12 158.52 45.12 A 12.494 12.494 0 0 1 154.738 44.559 A 11.42 11.42 0 0 1 153.33 44.01 A 18.207 18.207 0 0 1 151.286 42.897 A 13.238 13.238 0 0 1 149.4 41.46 L 149.4 57.6 L 144 57.6 L 144 21.18 Q 144 19.975 143.655 19.178 A 2.523 2.523 0 0 0 143.01 18.27 A 3.431 3.431 0 0 0 141.336 17.477 A 4.794 4.794 0 0 0 140.46 17.4 Z M 219.9 31.02 L 198.06 31.02 A 14.453 14.453 0 0 0 198.743 34.035 Q 199.457 36.072 200.785 37.515 A 8.988 8.988 0 0 0 201.12 37.86 A 8.486 8.486 0 0 0 205.695 40.146 A 12.013 12.013 0 0 0 207.78 40.32 Q 210.48 40.32 212.64 39.75 Q 214.8 39.18 216.78 38.28 L 218.04 42.9 A 21.243 21.243 0 0 1 215.149 44.005 A 26.56 26.56 0 0 1 213.18 44.52 A 24.427 24.427 0 0 1 210.125 44.988 A 32.764 32.764 0 0 1 207.12 45.12 A 17.507 17.507 0 0 1 203.642 44.788 A 14.165 14.165 0 0 1 201.06 44.01 Q 198.36 42.9 196.47 40.83 A 13.276 13.276 0 0 1 194.282 37.53 A 16.544 16.544 0 0 1 193.56 35.73 A 18.949 18.949 0 0 1 192.749 32.156 A 25.688 25.688 0 0 1 192.54 28.8 Q 192.54 25.32 193.56 22.32 A 16.619 16.619 0 0 1 195.248 18.751 A 14.491 14.491 0 0 1 196.44 17.13 Q 198.3 14.94 200.88 13.71 A 12.723 12.723 0 0 1 205.254 12.541 A 15.48 15.48 0 0 1 206.64 12.48 A 16.745 16.745 0 0 1 209.582 12.726 A 12.372 12.372 0 0 1 212.52 13.62 A 12.03 12.03 0 0 1 215.945 15.914 A 11.301 11.301 0 0 1 216.72 16.74 A 13.167 13.167 0 0 1 219.118 20.992 A 15.129 15.129 0 0 1 219.24 21.36 A 18.209 18.209 0 0 1 220.078 26.665 A 20.435 20.435 0 0 1 220.08 26.94 A 45.122 45.122 0 0 1 219.906 30.958 A 41.591 41.591 0 0 1 219.9 31.02 Z M 70.539 24.995 A 20.518 20.518 0 0 0 70.2 28.8 A 20.821 20.821 0 0 0 70.278 30.616 A 17.233 17.233 0 0 0 71.37 35.4 A 17.671 17.671 0 0 0 71.677 36.137 A 15.262 15.262 0 0 0 74.61 40.56 Q 76.68 42.72 79.53 43.92 A 14.789 14.789 0 0 0 81.361 44.553 A 16.495 16.495 0 0 0 85.74 45.12 A 18.269 18.269 0 0 0 86.355 45.11 A 15.859 15.859 0 0 0 91.89 43.95 Q 94.74 42.78 96.84 40.62 A 14.295 14.295 0 0 0 97.948 39.336 A 15.697 15.697 0 0 0 100.11 35.43 A 16.689 16.689 0 0 0 100.91 32.647 A 20.445 20.445 0 0 0 101.28 28.68 Q 101.28 24.96 100.08 21.96 A 17.231 17.231 0 0 0 99.683 21.044 A 14.652 14.652 0 0 0 96.78 16.86 Q 94.68 14.76 91.83 13.62 A 15.635 15.635 0 0 0 91.472 13.482 A 16.314 16.314 0 0 0 85.74 12.48 A 18.693 18.693 0 0 0 85.024 12.494 A 16.189 16.189 0 0 0 79.59 13.62 Q 76.74 14.76 74.67 16.86 A 13.958 13.958 0 0 0 73.24 18.566 A 16.082 16.082 0 0 0 71.4 21.99 A 16.387 16.387 0 0 0 70.539 24.995 Z M 185.04 13.2 L 185.04 44.4 L 179.64 44.4 L 179.64 13.2 L 185.04 13.2 Z M 95.76 28.8 Q 95.76 26.46 95.01 24.36 A 11.738 11.738 0 0 0 93.585 21.567 A 10.629 10.629 0 0 0 92.91 20.7 Q 91.56 19.14 89.73 18.21 Q 87.9 17.28 85.74 17.28 A 11.549 11.549 0 0 0 82.604 17.683 A 8.422 8.422 0 0 0 78.36 20.4 A 10.727 10.727 0 0 0 76.156 24.824 Q 75.72 26.584 75.72 28.68 Q 75.72 31.02 76.47 33.15 A 12.079 12.079 0 0 0 77.858 35.933 A 10.891 10.891 0 0 0 78.57 36.87 Q 79.92 38.46 81.75 39.39 Q 83.58 40.32 85.74 40.32 A 11.214 11.214 0 0 0 88.091 40.083 A 9.111 9.111 0 0 0 89.94 39.48 Q 91.8 38.64 93.09 37.11 A 10.42 10.42 0 0 0 94.739 34.371 A 12.42 12.42 0 0 0 95.07 33.48 A 13.679 13.679 0 0 0 95.661 30.686 A 17.404 17.404 0 0 0 95.76 28.8 Z M 113.82 21.24 L 113.82 36.6 Q 115.38 38.22 117.39 39.27 A 9.333 9.333 0 0 0 121.233 40.303 A 11.139 11.139 0 0 0 121.86 40.32 Q 123.9 40.32 125.58 39.48 Q 127.26 38.64 128.49 37.11 A 10.295 10.295 0 0 0 129.912 34.723 A 12.694 12.694 0 0 0 130.38 33.45 A 14.503 14.503 0 0 0 130.93 30.75 A 18.806 18.806 0 0 0 131.04 28.68 Q 131.04 25.98 130.29 23.85 A 12.29 12.29 0 0 0 129.275 21.653 A 10.085 10.085 0 0 0 128.25 20.22 Q 126.96 18.72 125.25 17.94 Q 123.54 17.16 121.62 17.16 A 8.845 8.845 0 0 0 118.244 17.798 A 8.432 8.432 0 0 0 116.97 18.45 Q 114.9 19.74 113.82 21.24 Z M 149.4 21.24 L 149.4 36.6 Q 150.96 38.22 152.97 39.27 A 9.333 9.333 0 0 0 156.813 40.303 A 11.139 11.139 0 0 0 157.44 40.32 Q 159.48 40.32 161.16 39.48 Q 162.84 38.64 164.07 37.11 A 10.295 10.295 0 0 0 165.492 34.723 A 12.694 12.694 0 0 0 165.96 33.45 A 14.503 14.503 0 0 0 166.51 30.75 A 18.806 18.806 0 0 0 166.62 28.68 Q 166.62 25.98 165.87 23.85 A 12.29 12.29 0 0 0 164.855 21.653 A 10.085 10.085 0 0 0 163.83 20.22 Q 162.54 18.72 160.83 17.94 Q 159.12 17.16 157.2 17.16 A 8.845 8.845 0 0 0 153.824 17.798 A 8.432 8.432 0 0 0 152.55 18.45 Q 150.48 19.74 149.4 21.24 Z M 198 26.64 L 215.1 26.64 A 14.613 14.613 0 0 0 214.857 23.889 Q 214.56 22.338 213.897 21.124 A 7.453 7.453 0 0 0 212.82 19.62 A 7.493 7.493 0 0 0 208.644 17.355 A 11.037 11.037 0 0 0 206.52 17.16 Q 202.98 17.16 200.73 19.56 A 8.843 8.843 0 0 0 199.054 22.203 Q 198.559 23.377 198.271 24.816 A 19.372 19.372 0 0 0 198 26.64 Z M 179.705 6.784 A 3.635 3.635 0 0 0 182.34 7.86 Q 184.08 7.86 185.1 6.84 Q 186.12 5.82 186.12 4.08 A 4.359 4.359 0 0 0 186.12 4.031 A 3.636 3.636 0 0 0 185.01 1.41 A 4.438 4.438 0 0 0 184.975 1.376 A 3.635 3.635 0 0 0 182.34 0.3 Q 180.6 0.3 179.58 1.32 Q 178.56 2.34 178.56 4.08 A 4.359 4.359 0 0 0 178.56 4.129 A 3.636 3.636 0 0 0 179.67 6.75 A 4.438 4.438 0 0 0 179.705 6.784 Z" vector-effect="non-scaling-stroke"/></g></svg>